<?xml version="1.0" encoding="UTF-8" standalone="no"?>
<!DOCTYPE svg PUBLIC "-//W3C//DTD SVG 1.1//EN" "http://www.w3.org/Graphics/SVG/1.1/DTD/svg11.dtd">
<svg width="100%" height="100%" viewBox="0 0 2483 753" version="1.1" xmlns="http://www.w3.org/2000/svg" xmlns:xlink="http://www.w3.org/1999/xlink" xml:space="preserve" xmlns:serif="http://www.serif.com/" style="fill-rule:evenodd;clip-rule:evenodd;stroke-linejoin:round;stroke-miterlimit:2;">
    <g id="_1" serif:id="1" transform="matrix(1,0,0,1,-1.99427,-878.499)">
        <rect x="1.994" y="878.499" width="2482.45" height="752.999" style="fill:none;"/>
        <g>
            <g transform="matrix(-2.53723,3.77849,-2.12294,-1.42554,2494.26,-335.557)">
                <path d="M584.722,257.111C584.722,247.606 580.387,239.89 575.047,239.89L481.284,239.89C475.944,239.89 471.609,247.606 471.609,257.111C471.609,266.615 475.944,274.331 481.284,274.331L575.047,274.331C580.387,274.331 584.722,266.615 584.722,257.111Z" style="fill:white;"/>
            </g>
            <g transform="matrix(-2.06771,0.590073,-0.590073,-2.06771,1897.18,1359.74)">
                <path d="M622.698,274.256C622.698,274.256 617.569,275.525 613.914,273.925C613.397,273.699 606.124,269.885 605.64,269.537C603.186,267.773 600.524,264.911 598.073,264.748C595.138,264.553 592.276,266.693 591.664,269.226C590.982,272.048 592.403,276.731 594.574,279.664C596.745,282.598 601.388,284.64 604.691,286.826C609.084,289.734 615.683,294.403 620.339,299.132C625.236,304.107 628.573,311.685 634.075,316.674C640.881,322.845 655.916,332.575 661.175,336.164C662.525,337.085 665.106,336.659 665.63,338.206C666.527,340.851 665.244,347.966 666.558,352.034C667.857,356.051 670.281,359.907 673.519,362.615C677.015,365.538 682.785,370.194 687.534,369.576C692.282,368.957 699.163,364.178 702.012,358.902C705.044,353.287 703.946,340.387 705.724,335.885C706.707,333.398 711.12,334.063 712.685,331.895C715.578,327.888 720.137,318.661 723.08,311.847C725.996,305.096 728.789,298.202 730.344,291.014C732.088,282.949 732.695,270.55 733.546,263.459C734.146,258.457 736.685,252.415 735.451,248.467C734.216,244.519 728.662,240.415 726.137,239.771C723.691,239.146 721.441,242.348 720.303,244.602C719.145,246.896 719.599,250.827 719.186,253.534C718.813,255.985 718.252,258.404 717.828,260.847C717.31,263.824 717.057,268.028 716.08,271.397C715.105,274.76 713.482,278.131 711.968,281.063C710.537,283.833 706.997,288.987 706.997,288.987C706.997,288.987 702.16,272.591 698.006,265.204C693.752,257.639 685.341,247.73 681.474,243.597C679.79,241.797 675.87,242.628 674.803,240.406C671.589,233.711 666.175,214.074 662.187,203.427C658.775,194.318 656.26,181.88 650.875,176.526C645.76,171.441 634.769,173.201 629.877,171.306C626.653,170.057 624.038,167.284 621.524,165.157C619.123,163.126 617.773,159.53 614.795,158.544C611.817,157.558 605.901,157.229 603.658,159.24C601.415,161.251 600.772,166.783 601.338,170.61C602.014,175.192 604.352,182.036 607.718,186.735C611.914,192.594 626.512,205.762 626.512,205.762L626.512,227.108C626.512,227.108 617.661,226.907 613.287,226.296C606.365,225.329 592.521,221.075 584.98,221.307C578.949,221.493 573.417,227.302 568.042,227.688C562.774,228.067 557.136,225.329 552.728,223.628C548.772,222.101 545.032,218.098 541.591,217.479C538.369,216.9 534.204,218.446 532.078,219.915C530.114,221.272 528.369,223.954 528.829,226.296C529.487,229.641 532.836,235.933 536.022,239.986C539.29,244.143 543.486,248.651 548.435,251.239C553.946,254.12 563.73,257.04 569.086,257.272C573.211,257.45 580.571,252.631 580.571,252.631C580.571,252.631 608.342,264.437 615.363,268.041C618.214,269.504 622.698,274.256 622.698,274.256Z" style="fill:white;"/>
            </g>
        </g>
        <g transform="matrix(6.364,0,0,6.364,-3417.69,-1697.95)">
            <g transform="matrix(93.3333,0,0,93.3333,667.082,482.317)">
                <path d="M0.012,-0.7L0.123,-0.7L0.195,-0.157L0.197,-0.157L0.269,-0.7L0.37,-0.7L0.264,-0L0.118,-0L0.012,-0.7Z" style="fill:white;fill-rule:nonzero;"/>
            </g>
            <g transform="matrix(93.3333,0,0,93.3333,702.736,482.317)">
                <path d="M0.041,-0.7L0.341,-0.7L0.341,-0.6L0.151,-0.6L0.151,-0.415L0.302,-0.415L0.302,-0.315L0.151,-0.315L0.151,-0.1L0.341,-0.1L0.341,-0L0.041,-0L0.041,-0.7Z" style="fill:white;fill-rule:nonzero;"/>
            </g>
            <g transform="matrix(93.3333,0,0,93.3333,736.616,482.317)">
                <path d="M0.041,-0.7L0.204,-0.7C0.261,-0.7 0.302,-0.687 0.328,-0.661C0.354,-0.634 0.367,-0.594 0.367,-0.539L0.367,-0.496C0.367,-0.423 0.343,-0.377 0.295,-0.358L0.295,-0.356C0.322,-0.348 0.341,-0.332 0.352,-0.307C0.363,-0.282 0.368,-0.249 0.368,-0.208L0.368,-0.085C0.368,-0.065 0.369,-0.049 0.37,-0.037C0.371,-0.024 0.375,-0.012 0.38,-0L0.268,-0C0.264,-0.011 0.261,-0.022 0.26,-0.032C0.259,-0.042 0.258,-0.06 0.258,-0.086L0.258,-0.214C0.258,-0.246 0.253,-0.268 0.243,-0.281C0.232,-0.294 0.214,-0.3 0.189,-0.3L0.151,-0.3L0.151,-0L0.041,-0L0.041,-0.7ZM0.191,-0.4C0.213,-0.4 0.23,-0.406 0.241,-0.417C0.252,-0.428 0.257,-0.447 0.257,-0.474L0.257,-0.528C0.257,-0.553 0.253,-0.572 0.244,-0.583C0.234,-0.594 0.22,-0.6 0.201,-0.6L0.151,-0.6L0.151,-0.4L0.191,-0.4Z" style="fill:white;fill-rule:nonzero;"/>
            </g>
            <g transform="matrix(93.3333,0,0,93.3333,774.229,482.317)">
                <path d="M0.041,-0.7L0.207,-0.7C0.264,-0.7 0.305,-0.687 0.331,-0.661C0.357,-0.634 0.37,-0.594 0.37,-0.539L0.37,-0.511C0.37,-0.475 0.364,-0.446 0.353,-0.423C0.341,-0.4 0.323,-0.384 0.299,-0.374L0.299,-0.372C0.354,-0.353 0.381,-0.305 0.381,-0.226L0.381,-0.166C0.381,-0.112 0.367,-0.071 0.339,-0.043C0.31,-0.014 0.269,-0 0.214,-0L0.041,-0L0.041,-0.7ZM0.194,-0.415C0.216,-0.415 0.233,-0.421 0.244,-0.432C0.255,-0.443 0.26,-0.462 0.26,-0.489L0.26,-0.528C0.26,-0.553 0.256,-0.572 0.247,-0.583C0.237,-0.594 0.223,-0.6 0.204,-0.6L0.151,-0.6L0.151,-0.415L0.194,-0.415ZM0.214,-0.1C0.233,-0.1 0.248,-0.105 0.257,-0.116C0.266,-0.126 0.271,-0.144 0.271,-0.169L0.271,-0.23C0.271,-0.262 0.266,-0.284 0.255,-0.297C0.244,-0.309 0.225,-0.315 0.2,-0.315L0.151,-0.315L0.151,-0.1L0.214,-0.1Z" style="fill:white;fill-rule:nonzero;"/>
            </g>
            <g transform="matrix(93.3333,0,0,93.3333,811.936,482.317)">
                <rect x="0.041" y="-0.7" width="0.11" height="0.7" style="fill:white;fill-rule:nonzero;"/>
            </g>
            <g transform="matrix(93.3333,0,0,93.3333,829.856,482.317)">
                <path d="M0.041,-0.7L0.341,-0.7L0.341,-0.6L0.151,-0.6L0.151,-0.415L0.302,-0.415L0.302,-0.315L0.151,-0.315L0.151,-0.1L0.341,-0.1L0.341,-0L0.041,-0L0.041,-0.7Z" style="fill:white;fill-rule:nonzero;"/>
            </g>
            <g transform="matrix(93.3333,0,0,93.3333,863.736,482.317)">
                <path d="M0.041,-0.7L0.204,-0.7C0.261,-0.7 0.302,-0.687 0.328,-0.661C0.354,-0.634 0.367,-0.594 0.367,-0.539L0.367,-0.496C0.367,-0.423 0.343,-0.377 0.295,-0.358L0.295,-0.356C0.322,-0.348 0.341,-0.332 0.352,-0.307C0.363,-0.282 0.368,-0.249 0.368,-0.208L0.368,-0.085C0.368,-0.065 0.369,-0.049 0.37,-0.037C0.371,-0.024 0.375,-0.012 0.38,-0L0.268,-0C0.264,-0.011 0.261,-0.022 0.26,-0.032C0.259,-0.042 0.258,-0.06 0.258,-0.086L0.258,-0.214C0.258,-0.246 0.253,-0.268 0.243,-0.281C0.232,-0.294 0.214,-0.3 0.189,-0.3L0.151,-0.3L0.151,-0L0.041,-0L0.041,-0.7ZM0.191,-0.4C0.213,-0.4 0.23,-0.406 0.241,-0.417C0.252,-0.428 0.257,-0.447 0.257,-0.474L0.257,-0.528C0.257,-0.553 0.253,-0.572 0.244,-0.583C0.234,-0.594 0.22,-0.6 0.201,-0.6L0.151,-0.6L0.151,-0.4L0.191,-0.4Z" style="fill:white;fill-rule:nonzero;"/>
            </g>
            <g transform="matrix(29.3333,0,0,29.3333,670.696,511.651)">
                <path d="M0.041,-0.7L0.341,-0.7L0.341,-0.6L0.151,-0.6L0.151,-0.415L0.302,-0.415L0.302,-0.315L0.151,-0.315L0.151,-0.1L0.341,-0.1L0.341,-0L0.041,-0L0.041,-0.7Z" style="fill:white;fill-rule:nonzero;"/>
            </g>
            <g transform="matrix(29.3333,0,0,29.3333,681.402,511.651)">
                <path d="M0.138,-0.358L0.017,-0.7L0.133,-0.7L0.207,-0.474L0.209,-0.474L0.285,-0.7L0.389,-0.7L0.268,-0.358L0.395,-0L0.279,-0L0.199,-0.244L0.197,-0.244L0.115,-0L0.011,-0L0.138,-0.358Z" style="fill:white;fill-rule:nonzero;"/>
            </g>
            <g transform="matrix(29.3333,0,0,29.3333,693.312,511.651)">
                <path d="M0.127,-0.6L0.012,-0.6L0.012,-0.7L0.352,-0.7L0.352,-0.6L0.237,-0.6L0.237,-0L0.127,-0L0.127,-0.6Z" style="fill:white;fill-rule:nonzero;"/>
            </g>
            <g transform="matrix(29.3333,0,0,29.3333,703.989,511.651)">
                <path d="M0.041,-0.7L0.204,-0.7C0.261,-0.7 0.302,-0.687 0.328,-0.661C0.354,-0.634 0.367,-0.594 0.367,-0.539L0.367,-0.496C0.367,-0.423 0.343,-0.377 0.295,-0.358L0.295,-0.356C0.322,-0.348 0.341,-0.332 0.352,-0.307C0.363,-0.282 0.368,-0.249 0.368,-0.208L0.368,-0.085C0.368,-0.065 0.369,-0.049 0.37,-0.037C0.371,-0.024 0.375,-0.012 0.38,-0L0.268,-0C0.264,-0.011 0.261,-0.022 0.26,-0.032C0.259,-0.042 0.258,-0.06 0.258,-0.086L0.258,-0.214C0.258,-0.246 0.253,-0.268 0.243,-0.281C0.232,-0.294 0.214,-0.3 0.189,-0.3L0.151,-0.3L0.151,-0L0.041,-0L0.041,-0.7ZM0.191,-0.4C0.213,-0.4 0.23,-0.406 0.241,-0.417C0.252,-0.428 0.257,-0.447 0.257,-0.474L0.257,-0.528C0.257,-0.553 0.253,-0.572 0.244,-0.583C0.234,-0.594 0.22,-0.6 0.201,-0.6L0.151,-0.6L0.151,-0.4L0.191,-0.4Z" style="fill:white;fill-rule:nonzero;"/>
            </g>
            <g transform="matrix(29.3333,0,0,29.3333,715.81,511.651)">
                <path d="M0.041,-0.7L0.341,-0.7L0.341,-0.6L0.151,-0.6L0.151,-0.415L0.302,-0.415L0.302,-0.315L0.151,-0.315L0.151,-0.1L0.341,-0.1L0.341,-0L0.041,-0L0.041,-0.7Z" style="fill:white;fill-rule:nonzero;"/>
            </g>
            <g transform="matrix(29.3333,0,0,29.3333,726.458,511.651)">
                <path d="M0.041,-0.7L0.198,-0.7L0.268,-0.199L0.27,-0.199L0.34,-0.7L0.497,-0.7L0.497,-0L0.393,-0L0.393,-0.53L0.391,-0.53L0.311,-0L0.219,-0L0.139,-0.53L0.137,-0.53L0.137,-0L0.041,-0L0.041,-0.7Z" style="fill:white;fill-rule:nonzero;"/>
            </g>
            <g transform="matrix(29.3333,0,0,29.3333,742.24,511.651)">
                <path d="M0.041,-0.7L0.341,-0.7L0.341,-0.6L0.151,-0.6L0.151,-0.415L0.302,-0.415L0.302,-0.315L0.151,-0.315L0.151,-0.1L0.341,-0.1L0.341,-0L0.041,-0L0.041,-0.7Z" style="fill:white;fill-rule:nonzero;"/>
            </g>
            <g transform="matrix(29.3333,0,0,29.3333,757.581,511.651)">
                <path d="M0.184,0.01C0.131,0.01 0.09,-0.005 0.063,-0.035C0.036,-0.066 0.022,-0.109 0.022,-0.166L0.022,-0.206L0.126,-0.206L0.126,-0.158C0.126,-0.113 0.145,-0.09 0.183,-0.09C0.202,-0.09 0.216,-0.096 0.226,-0.107C0.235,-0.117 0.24,-0.135 0.24,-0.16C0.24,-0.189 0.233,-0.215 0.22,-0.237C0.207,-0.26 0.182,-0.287 0.146,-0.318C0.101,-0.358 0.069,-0.394 0.051,-0.427C0.033,-0.459 0.024,-0.495 0.024,-0.536C0.024,-0.591 0.038,-0.634 0.066,-0.665C0.094,-0.695 0.135,-0.71 0.188,-0.71C0.241,-0.71 0.281,-0.695 0.308,-0.665C0.335,-0.634 0.348,-0.591 0.348,-0.534L0.348,-0.505L0.244,-0.505L0.244,-0.541C0.244,-0.565 0.239,-0.583 0.23,-0.594C0.221,-0.605 0.207,-0.61 0.189,-0.61C0.152,-0.61 0.134,-0.588 0.134,-0.543C0.134,-0.518 0.141,-0.494 0.155,-0.472C0.168,-0.45 0.193,-0.423 0.229,-0.392C0.275,-0.352 0.307,-0.316 0.324,-0.283C0.341,-0.25 0.35,-0.212 0.35,-0.168C0.35,-0.111 0.336,-0.067 0.308,-0.036C0.279,-0.005 0.238,0.01 0.184,0.01Z" style="fill:white;fill-rule:nonzero;"/>
            </g>
            <g transform="matrix(29.3333,0,0,29.3333,768.493,511.651)">
                <path d="M0.041,-0.7L0.179,-0.7L0.286,-0.281L0.288,-0.281L0.288,-0.7L0.386,-0.7L0.386,-0L0.273,-0L0.141,-0.511L0.139,-0.511L0.139,-0L0.041,-0L0.041,-0.7Z" style="fill:white;fill-rule:nonzero;"/>
            </g>
            <g transform="matrix(29.3333,0,0,29.3333,781.018,511.651)">
                <path d="M0.2,0.01C0.146,0.01 0.105,-0.005 0.076,-0.036C0.047,-0.067 0.033,-0.11 0.033,-0.166L0.033,-0.534C0.033,-0.59 0.047,-0.633 0.076,-0.664C0.105,-0.695 0.146,-0.71 0.2,-0.71C0.254,-0.71 0.295,-0.695 0.324,-0.664C0.353,-0.633 0.367,-0.59 0.367,-0.534L0.367,-0.166C0.367,-0.11 0.353,-0.067 0.324,-0.036C0.295,-0.005 0.254,0.01 0.2,0.01ZM0.2,-0.09C0.238,-0.09 0.257,-0.113 0.257,-0.159L0.257,-0.541C0.257,-0.587 0.238,-0.61 0.2,-0.61C0.162,-0.61 0.143,-0.587 0.143,-0.541L0.143,-0.159C0.143,-0.113 0.162,-0.09 0.2,-0.09Z" style="fill:white;fill-rule:nonzero;"/>
            </g>
            <g transform="matrix(29.3333,0,0,29.3333,792.752,511.651)">
                <path d="M0.015,-0.7L0.121,-0.7L0.17,-0.162L0.172,-0.162L0.224,-0.7L0.344,-0.7L0.396,-0.162L0.398,-0.162L0.447,-0.7L0.542,-0.7L0.471,-0L0.334,-0L0.284,-0.472L0.282,-0.472L0.232,-0L0.086,-0L0.015,-0.7Z" style="fill:white;fill-rule:nonzero;"/>
            </g>
            <g transform="matrix(29.3333,0,0,29.3333,809.09,511.651)">
                <path d="M0.041,-0.7L0.207,-0.7C0.264,-0.7 0.305,-0.687 0.331,-0.661C0.357,-0.634 0.37,-0.594 0.37,-0.539L0.37,-0.511C0.37,-0.475 0.364,-0.446 0.353,-0.423C0.341,-0.4 0.323,-0.384 0.299,-0.374L0.299,-0.372C0.354,-0.353 0.381,-0.305 0.381,-0.226L0.381,-0.166C0.381,-0.112 0.367,-0.071 0.339,-0.043C0.31,-0.014 0.269,-0 0.214,-0L0.041,-0L0.041,-0.7ZM0.194,-0.415C0.216,-0.415 0.233,-0.421 0.244,-0.432C0.255,-0.443 0.26,-0.462 0.26,-0.489L0.26,-0.528C0.26,-0.553 0.256,-0.572 0.247,-0.583C0.237,-0.594 0.223,-0.6 0.204,-0.6L0.151,-0.6L0.151,-0.415L0.194,-0.415ZM0.214,-0.1C0.233,-0.1 0.248,-0.105 0.257,-0.116C0.266,-0.126 0.271,-0.144 0.271,-0.169L0.271,-0.23C0.271,-0.262 0.266,-0.284 0.255,-0.297C0.244,-0.309 0.225,-0.315 0.2,-0.315L0.151,-0.315L0.151,-0.1L0.214,-0.1Z" style="fill:white;fill-rule:nonzero;"/>
            </g>
            <g transform="matrix(29.3333,0,0,29.3333,820.941,511.651)">
                <path d="M0.2,0.01C0.146,0.01 0.105,-0.005 0.076,-0.036C0.047,-0.067 0.033,-0.11 0.033,-0.166L0.033,-0.534C0.033,-0.59 0.047,-0.633 0.076,-0.664C0.105,-0.695 0.146,-0.71 0.2,-0.71C0.254,-0.71 0.295,-0.695 0.324,-0.664C0.353,-0.633 0.367,-0.59 0.367,-0.534L0.367,-0.166C0.367,-0.11 0.353,-0.067 0.324,-0.036C0.295,-0.005 0.254,0.01 0.2,0.01ZM0.2,-0.09C0.238,-0.09 0.257,-0.113 0.257,-0.159L0.257,-0.541C0.257,-0.587 0.238,-0.61 0.2,-0.61C0.162,-0.61 0.143,-0.587 0.143,-0.541L0.143,-0.159C0.143,-0.113 0.162,-0.09 0.2,-0.09Z" style="fill:white;fill-rule:nonzero;"/>
            </g>
            <g transform="matrix(29.3333,0,0,29.3333,832.616,511.651)">
                <path d="M0.126,-0.7L0.275,-0.7L0.389,-0L0.279,-0L0.259,-0.139L0.259,-0.137L0.134,-0.137L0.114,-0L0.012,-0L0.126,-0.7ZM0.246,-0.232L0.197,-0.578L0.195,-0.578L0.147,-0.232L0.246,-0.232Z" style="fill:white;fill-rule:nonzero;"/>
            </g>
            <g transform="matrix(29.3333,0,0,29.3333,844.378,511.651)">
                <path d="M0.041,-0.7L0.204,-0.7C0.261,-0.7 0.302,-0.687 0.328,-0.661C0.354,-0.634 0.367,-0.594 0.367,-0.539L0.367,-0.496C0.367,-0.423 0.343,-0.377 0.295,-0.358L0.295,-0.356C0.322,-0.348 0.341,-0.332 0.352,-0.307C0.363,-0.282 0.368,-0.249 0.368,-0.208L0.368,-0.085C0.368,-0.065 0.369,-0.049 0.37,-0.037C0.371,-0.024 0.375,-0.012 0.38,-0L0.268,-0C0.264,-0.011 0.261,-0.022 0.26,-0.032C0.259,-0.042 0.258,-0.06 0.258,-0.086L0.258,-0.214C0.258,-0.246 0.253,-0.268 0.243,-0.281C0.232,-0.294 0.214,-0.3 0.189,-0.3L0.151,-0.3L0.151,-0L0.041,-0L0.041,-0.7ZM0.191,-0.4C0.213,-0.4 0.23,-0.406 0.241,-0.417C0.252,-0.428 0.257,-0.447 0.257,-0.474L0.257,-0.528C0.257,-0.553 0.253,-0.572 0.244,-0.583C0.234,-0.594 0.22,-0.6 0.201,-0.6L0.151,-0.6L0.151,-0.4L0.191,-0.4Z" style="fill:white;fill-rule:nonzero;"/>
            </g>
            <g transform="matrix(29.3333,0,0,29.3333,856.2,511.651)">
                <path d="M0.041,-0.7L0.209,-0.7C0.264,-0.7 0.305,-0.685 0.332,-0.656C0.359,-0.627 0.373,-0.584 0.373,-0.527L0.373,-0.173C0.373,-0.116 0.359,-0.073 0.332,-0.044C0.305,-0.015 0.264,-0 0.209,-0L0.041,-0L0.041,-0.7ZM0.207,-0.1C0.225,-0.1 0.239,-0.105 0.249,-0.116C0.258,-0.127 0.263,-0.144 0.263,-0.168L0.263,-0.532C0.263,-0.556 0.258,-0.573 0.249,-0.584C0.239,-0.595 0.225,-0.6 0.207,-0.6L0.151,-0.6L0.151,-0.1L0.207,-0.1Z" style="fill:white;fill-rule:nonzero;"/>
            </g>
            <g transform="matrix(29.3333,0,0,29.3333,868.109,511.651)">
                <rect x="0.041" y="-0.7" width="0.11" height="0.7" style="fill:white;fill-rule:nonzero;"/>
            </g>
            <g transform="matrix(29.3333,0,0,29.3333,873.741,511.651)">
                <path d="M0.041,-0.7L0.179,-0.7L0.286,-0.281L0.288,-0.281L0.288,-0.7L0.386,-0.7L0.386,-0L0.273,-0L0.141,-0.511L0.139,-0.511L0.139,-0L0.041,-0L0.041,-0.7Z" style="fill:white;fill-rule:nonzero;"/>
            </g>
            <g transform="matrix(29.3333,0,0,29.3333,886.266,511.651)">
                <path d="M0.197,0.01C0.144,0.01 0.103,-0.005 0.075,-0.035C0.047,-0.066 0.033,-0.109 0.033,-0.166L0.033,-0.534C0.033,-0.591 0.047,-0.634 0.075,-0.665C0.103,-0.695 0.144,-0.71 0.197,-0.71C0.25,-0.71 0.291,-0.695 0.319,-0.665C0.347,-0.634 0.361,-0.591 0.361,-0.534L0.361,-0.474L0.257,-0.474L0.257,-0.541C0.257,-0.587 0.238,-0.61 0.2,-0.61C0.162,-0.61 0.143,-0.587 0.143,-0.541L0.143,-0.158C0.143,-0.113 0.162,-0.09 0.2,-0.09C0.238,-0.09 0.257,-0.113 0.257,-0.158L0.257,-0.295L0.202,-0.295L0.202,-0.395L0.361,-0.395L0.361,-0.166C0.361,-0.109 0.347,-0.066 0.319,-0.035C0.291,-0.005 0.25,0.01 0.197,0.01Z" style="fill:white;fill-rule:nonzero;"/>
            </g>
        </g>
    </g>
</svg>
